ffmpeg started on 2016-12-05 at 14:59:04
Report written to "Output/x264/results/ffmpeg/crowd_run_2160p50faster4000k.log"
Command line:
Tools/ffmpeg/ffmpeg -benchmark -y -i Input/y4m/crowd_run_2160p50.y4m -c:v libx264 -preset faster -b:v 4000k -an Output/x264/encoded/crowd_run_2160p50faster4000k.mkv
ffmpeg version N-82227-gdb23fde Copyright (c) 2000-2016 the FFmpeg developers
  built with gcc 5.4.0 (Ubuntu 5.4.0-6ubuntu1~16.04.2) 20160609
  configuration: --prefix=/home/jaroslav/ffmpeg_build --pkg-config-flags=--static --extra-cflags=-I/home/jaroslav/ffmpeg_build/include --extra-ldflags=-L/home/jaroslav/ffmpeg_build/lib --bindir=/home/jaroslav/bin --enable-gpl --enable-libass --enable-libfdk-aac --enable-libfreetype --enable-libmp3lame --enable-libopus --enable-libtheora --enable-libvorbis --enable-libvpx --enable-libx264 --enable-libx265 --enable-nvenc --enable-libmfx --enable-libxvid --enable-libgsm --enable-libopencore-amrnb --enable-version3 --enable-nonfree
  libavutil      55. 35.100 / 55. 35.100
  libavcodec     57. 66.101 / 57. 66.101
  libavformat    57. 57.100 / 57. 57.100
  libavdevice    57.  2.100 / 57.  2.100
  libavfilter     6. 66.100 /  6. 66.100
  libswscale      4.  3.100 /  4.  3.100
  libswresample   2.  4.100 /  2.  4.100
  libpostproc    54.  2.100 / 54.  2.100
Input #0, yuv4mpegpipe, from 'Input/y4m/crowd_run_2160p50.y4m':
  Duration: 00:00:10.00, start: 0.000000, bitrate: 4976642 kb/s
    Stream #0:0: Video: rawvideo (I420 / 0x30323449), yuv420p(progressive), 3840x2160, SAR 1:1 DAR 16:9, 50 fps, 50 tbr, 50 tbn, 50 tbc
[libx264 @ 0x30721c0] using SAR=1/1
[libx264 @ 0x30721c0] using cpu capabilities: MMX2 SSE2Fast SSSE3 SSE4.2 AVX FMA3 AVX2 LZCNT BMI2
[libx264 @ 0x30721c0] profile High, level 5.2
[libx264 @ 0x30721c0] 264 - core 148 - H.264/MPEG-4 AVC codec - Copyleft 2003-2016 - http://www.videolan.org/x264.html - options: cabac=1 ref=2 deblock=1:0:0 analyse=0x3:0x113 me=hex subme=4 psy=1 psy_rd=1.00:0.00 mixed_ref=0 me_range=16 chroma_me=1 trellis=1 8x8dct=1 cqm=0 deadzone=21,11 fast_pskip=1 chroma_qp_offset=0 threads=6 lookahead_threads=1 sliced_threads=0 nr=0 decimate=1 interlaced=0 bluray_compat=0 constrained_intra=0 bframes=3 b_pyramid=2 b_adapt=1 b_bias=0 direct=1 weightb=1 open_gop=0 weightp=1 keyint=250 keyint_min=25 scenecut=40 intra_refresh=0 rc_lookahead=20 rc=abr mbtree=1 bitrate=4000 ratetol=1.0 qcomp=0.60 qpmin=0 qpmax=69 qpstep=4 ip_ratio=1.40 aq=1:1.00
Output #0, matroska, to 'Output/x264/encoded/crowd_run_2160p50faster4000k.mkv':
  Metadata:
    encoder         : Lavf57.57.100
    Stream #0:0: Video: h264 (libx264) (H264 / 0x34363248), yuv420p, 3840x2160 [SAR 1:1 DAR 16:9], q=-1--1, 4000 kb/s, 50 fps, 1k tbn, 50 tbc
    Metadata:
      encoder         : Lavc57.66.101 libx264
    Side data:
      cpb: bitrate max/min/avg: 0/0/4000000 buffer size: 0 vbv_delay: -1
Stream mapping:
  Stream #0:0 -> #0:0 (rawvideo (native) -> h264 (libx264))
Press [q] to stop, [?] for help
frame=   18 fps=0.0 q=0.0 size=       0kB time=00:00:00.00 bitrate=N/A speed=   0x    frame=   27 fps= 13 q=0.0 size=       0kB time=00:00:00.00 bitrate=N/A speed=   0x    frame=   34 fps= 13 q=43.0 size=       1kB time=00:00:00.02 bitrate= 279.2kbits/s speed=0.00819x    frame=   40 fps= 13 q=55.0 size=       1kB time=00:00:00.14 bitrate=  41.6kbits/s speed=0.0456x    frame=   48 fps= 13 q=58.0 size=       1kB time=00:00:00.30 bitrate=  19.5kbits/s speed=0.0825x    frame=   57 fps= 14 q=59.0 size=       1kB time=00:00:00.48 bitrate=  12.2kbits/s speed=0.115x    frame=   66 fps= 14 q=60.0 size=       1kB time=00:00:00.66 bitrate=   8.9kbits/s speed=0.141x    frame=   75 fps= 14 q=60.0 size=       1kB time=00:00:00.84 bitrate=   7.0kbits/s speed=0.161x    frame=   84 fps= 14 q=60.0 size=       1kB time=00:00:01.02 bitrate=   5.7kbits/s speed=0.174x    frame=   93 fps= 15 q=60.0 size=       1kB time=00:00:01.20 bitrate=   4.9kbits/s speed=0.188x    frame=  101 fps= 15 q=60.0 size=       1kB time=00:00:01.36 bitrate=   4.3kbits/s speed=0.197x    frame=  110 fps= 15 q=60.0 size=       1kB time=00:00:01.54 bitrate=   3.8kbits/s speed=0.208x    frame=  119 fps= 15 q=60.0 size=       1kB time=00:00:01.72 bitrate=   3.4kbits/s speed=0.217x    frame=  128 fps= 15 q=60.0 size=       1kB time=00:00:01.90 bitrate=   3.1kbits/s speed=0.222x    frame=  137 fps= 15 q=60.0 size=       1kB time=00:00:02.08 bitrate=   2.8kbits/s speed=0.23x    frame=  146 fps= 15 q=60.0 size=       1kB time=00:00:02.26 bitrate=   2.6kbits/s speed=0.236x    frame=  155 fps= 15 q=60.0 size=       1kB time=00:00:02.44 bitrate=   2.4kbits/s speed=0.242x    frame=  164 fps= 15 q=60.0 size=       1kB time=00:00:02.62 bitrate=   2.2kbits/s speed=0.245x    frame=  169 fps= 15 q=60.0 size=       1kB time=00:00:02.72 bitrate=   2.2kbits/s speed=0.242x    frame=  178 fps= 15 q=59.0 size=       1kB time=00:00:02.90 bitrate=   2.0kbits/s speed=0.247x    frame=  187 fps= 15 q=59.0 size=       1kB time=00:00:03.08 bitrate=   1.9kbits/s speed=0.251x    frame=  192 fps= 15 q=59.0 size=       1kB time=00:00:03.18 bitrate=   1.8kbits/s speed=0.249x    frame=  201 fps= 15 q=59.0 size=       1kB time=00:00:03.36 bitrate=   1.7kbits/s speed=0.253x    frame=  210 fps= 15 q=59.0 size=       1kB time=00:00:03.54 bitrate=   1.7kbits/s speed=0.256x    frame=  219 fps= 15 q=59.0 size=       1kB time=00:00:03.72 bitrate=   1.6kbits/s speed=0.26x    frame=  228 fps= 15 q=59.0 size=       1kB time=00:00:03.90 bitrate=   1.5kbits/s speed=0.261x    frame=  237 fps= 15 q=59.0 size=       1kB time=00:00:04.08 bitrate=   1.4kbits/s speed=0.264x    frame=  246 fps= 15 q=59.0 size=       1kB time=00:00:04.26 bitrate=   1.4kbits/s speed=0.267x    frame=  255 fps= 15 q=59.0 size=       1kB time=00:00:04.44 bitrate=   1.3kbits/s speed=0.269x    frame=  264 fps= 15 q=59.0 size=       1kB time=00:00:04.62 bitrate=   1.3kbits/s speed=0.27x    frame=  273 fps= 15 q=59.0 size=       1kB time=00:00:04.80 bitrate=   1.2kbits/s speed=0.272x    frame=  277 fps= 15 q=59.0 size=       1kB time=00:00:04.88 bitrate=   1.2kbits/s speed=0.265x    frame=  286 fps= 15 q=59.0 size=    2646kB time=00:00:05.06 bitrate=4282.2kbits/s speed=0.267x    frame=  295 fps= 15 q=59.0 size=    2646kB time=00:00:05.24 bitrate=4135.1kbits/s speed=0.269x    frame=  304 fps= 15 q=59.0 size=    2646kB time=00:00:05.42 bitrate=3997.8kbits/s speed=0.271x    frame=  313 fps= 15 q=60.0 size=    2646kB time=00:00:05.60 bitrate=3869.4kbits/s speed=0.273x    frame=  322 fps= 15 q=60.0 size=    2646kB time=00:00:05.78 bitrate=3748.9kbits/s speed=0.274x    frame=  331 fps= 15 q=60.0 size=    2646kB time=00:00:05.96 bitrate=3635.7kbits/s speed=0.275x    frame=  340 fps= 15 q=60.0 size=    2646kB time=00:00:06.14 bitrate=3529.1kbits/s speed=0.277x    frame=  349 fps= 15 q=60.0 size=    2646kB time=00:00:06.32 bitrate=3428.6kbits/s speed=0.278x    frame=  354 fps= 15 q=60.0 size=    2646kB time=00:00:06.42 bitrate=3375.2kbits/s speed=0.277x    frame=  363 fps= 15 q=60.0 size=    2646kB time=00:00:06.60 bitrate=3283.2kbits/s speed=0.278x    frame=  372 fps= 15 q=60.0 size=    2646kB time=00:00:06.78 bitrate=3196.0kbits/s speed=0.28x    frame=  381 fps= 15 q=60.0 size=    2646kB time=00:00:06.96 bitrate=3113.4kbits/s speed=0.281x    frame=  390 fps= 15 q=60.0 size=    2646kB time=00:00:07.14 bitrate=3034.9kbits/s speed=0.281x    frame=  399 fps= 15 q=60.0 size=    2646kB time=00:00:07.32 bitrate=2960.3kbits/s speed=0.283x    frame=  408 fps= 15 q=60.0 size=    2646kB time=00:00:07.50 bitrate=2889.3kbits/s speed=0.284x    frame=  417 fps= 15 q=60.0 size=    2646kB time=00:00:07.68 bitrate=2821.5kbits/s speed=0.285x    frame=  426 fps= 15 q=60.0 size=    2646kB time=00:00:07.86 bitrate=2756.9kbits/s speed=0.285x    frame=  435 fps= 15 q=60.0 size=    2646kB time=00:00:08.04 bitrate=2695.2kbits/s speed=0.286x    frame=  444 fps= 15 q=60.0 size=    2646kB time=00:00:08.22 bitrate=2636.2kbits/s speed=0.287x    frame=  452 fps= 15 q=61.0 size=    2646kB time=00:00:08.38 bitrate=2585.9kbits/s speed=0.286x    frame=  457 fps= 15 q=61.0 size=    2646kB time=00:00:08.48 bitrate=2555.4kbits/s speed=0.285x    frame=  465 fps= 15 q=61.0 size=    2646kB time=00:00:08.64 bitrate=2508.1kbits/s speed=0.283x    frame=  474 fps= 15 q=61.0 size=    2646kB time=00:00:08.82 bitrate=2456.9kbits/s speed=0.284x    frame=  482 fps= 15 q=61.0 size=    2646kB time=00:00:08.98 bitrate=2413.1kbits/s speed=0.284x    frame=  491 fps= 15 q=61.0 size=    2646kB time=00:00:09.16 bitrate=2365.7kbits/s speed=0.285x    frame=  500 fps= 15 q=61.0 size=    2646kB time=00:00:09.34 bitrate=2320.1kbits/s speed=0.286x    frame=  500 fps= 15 q=-1.0 Lsize=    5323kB time=00:00:09.94 bitrate=4386.6kbits/s speed=0.293x    
video:5319kB audio:0kB subtitle:0kB other streams:0kB global headers:0kB muxing overhead: 0.081502%
bench: utime=106.920s
bench: maxrss=1321500kB
[libx264 @ 0x30721c0] frame I:2     Avg QP:44.37  size:116052
[libx264 @ 0x30721c0] frame P:126   Avg QP:50.84  size: 18082
[libx264 @ 0x30721c0] frame B:372   Avg QP:50.87  size:  7891
[libx264 @ 0x30721c0] consecutive B-frames:  0.8%  0.0%  0.0% 99.2%
[libx264 @ 0x30721c0] mb I  I16..4: 47.0% 49.5%  3.5%
[libx264 @ 0x30721c0] mb P  I16..4: 10.9%  7.6%  0.0%  P16..4: 12.0%  1.1%  0.2%  0.0%  0.0%    skip:68.3%
[libx264 @ 0x30721c0] mb B  I16..4:  0.1%  0.1%  0.0%  B16..8: 11.6%  0.1%  0.0%  direct: 3.7%  skip:84.4%  L0:46.3% L1:53.6% BI: 0.1%
[libx264 @ 0x30721c0] final ratefactor: 52.01
[libx264 @ 0x30721c0] 8x8 transform intra:41.7% inter:96.7%
[libx264 @ 0x30721c0] coded y,uvDC,uvAC intra: 10.3% 42.9% 1.5% inter: 0.5% 3.4% 0.0%
[libx264 @ 0x30721c0] i16 v,h,dc,p: 70% 19%  9%  2%
[libx264 @ 0x30721c0] i8 v,h,dc,ddl,ddr,vr,hd,vl,hu: 11% 10% 53%  5%  4%  4%  4%  4%  3%
[libx264 @ 0x30721c0] i4 v,h,dc,ddl,ddr,vr,hd,vl,hu: 22% 17% 13%  9%  9%  8%  7%  8%  7%
[libx264 @ 0x30721c0] i8c dc,h,v,p: 97%  1%  2%  0%
[libx264 @ 0x30721c0] Weighted P-Frames: Y:1.6% UV:0.0%
[libx264 @ 0x30721c0] ref P L0: 60.0% 40.0%
[libx264 @ 0x30721c0] ref B L0: 82.5% 17.5%
[libx264 @ 0x30721c0] ref B L1: 93.7%  6.3%
[libx264 @ 0x30721c0] kb/s:4356.65
